<svg xmlns="http://www.w3.org/2000/svg" viewBox="0 0 320 200" fill="none" stroke="#303b39" stroke-width="1.35" stroke-linecap="round" stroke-linejoin="round">
  <defs><pattern id="paper" width="1" height="1" patternUnits="userSpaceOnUse"><rect width="1" height="1" fill="#f1f2ee" stroke="none"/></pattern></defs>
  <path d="M78 80c0-27 23-46 48-46s48 19 48 46v9M103 82V52m46 30V52M116 79V35h19v44M72 83c25-7 83-7 108 0v11H72Z" /><path d="M80 88h92M85 72c2-11 6-18 13-23" stroke-width=".65" opacity=".65"/><rect x="130" y="107" width="111" height="55" rx="4" fill="url(#paper)"/><path d="M162 106v-13h43v13M168 105v-7h31v7M131 126c34 13 70 13 110 0" /><rect x="177" y="129" width="17" height="13" rx="1" fill="url(#paper)"/><path d="M137 148v8h98v-8" stroke-width=".65" opacity=".65"/><path d="M73 173h178m-166 4h136m-126 3h93" stroke-width=".65" opacity=".65"/><path d="M144 146v8" stroke-width=".65" opacity=".65"/><path d="M148 146v8" stroke-width=".65" opacity=".65"/><path d="M152 146v8" stroke-width=".65" opacity=".65"/><path d="M156 146v8" stroke-width=".65" opacity=".65"/><path d="M160 146v8" stroke-width=".65" opacity=".65"/><path d="M164 146v8" stroke-width=".65" opacity=".65"/><path d="M168 146v8" stroke-width=".65" opacity=".65"/><path d="M172 146v8" stroke-width=".65" opacity=".65"/><path d="M82 63v12" stroke-width=".65" opacity=".65"/><path d="M86 63v12" stroke-width=".65" opacity=".65"/><path d="M90 63v12" stroke-width=".65" opacity=".65"/><path d="M94 63v12" stroke-width=".65" opacity=".65"/><path d="M98 63v12" stroke-width=".65" opacity=".65"/>
</svg>
